<mxfile host="65bd71144e">
    <diagram id="PWOgwB6UHjodcjJj7L6B" name="Page-1">
        <mxGraphModel dx="650" dy="1401" grid="1" gridSize="10" guides="1" tooltips="1" connect="1" arrows="1" fold="1" page="1" pageScale="1" pageWidth="850" pageHeight="1100" math="0" shadow="0">
            <root>
                <mxCell id="0"/>
                <mxCell id="1" parent="0"/>
                <mxCell id="7" value="Department Name&lt;br&gt;Số lượng nhân viên:" style="whiteSpace=wrap;html=1;aspect=fixed;" parent="1" vertex="1">
                    <mxGeometry x="80" y="160" width="130" height="130" as="geometry"/>
                </mxCell>
                <mxCell id="26" value="" style="shape=mxgraph.mockup.containers.marginRect;rectMarginTop=10;strokeColor=#001DBC;strokeWidth=1;dashed=0;rounded=1;arcSize=5;recursiveResize=0;fontSize=21;fillColor=#0050ef;fontColor=#ffffff;" parent="1" vertex="1">
                    <mxGeometry x="40" y="-10" width="650" height="140" as="geometry"/>
                </mxCell>
                <mxCell id="2" value="&lt;font style=&quot;font-size: 21px&quot;&gt;Logo&lt;/font&gt;" style="rounded=0;whiteSpace=wrap;html=1;strokeWidth=1;" parent="26" vertex="1">
                    <mxGeometry x="20" y="45" width="100" height="50" as="geometry"/>
                </mxCell>
                <mxCell id="19" value="" style="strokeWidth=1;shadow=0;align=center;html=1;shape=mxgraph.mockup.forms.rrect;rSize=0;strokeColor=none;fontSize=21;fillColor=none;fontColor=#ffffff;autosize=1;" parent="26" vertex="1">
                    <mxGeometry x="130" y="52.5" width="350" height="35" as="geometry"/>
                </mxCell>
                <mxCell id="20" value="Nhân viên" style="strokeColor=inherit;fillColor=inherit;gradientColor=inherit;strokeWidth=1;shadow=0;dashed=0;align=left;html=1;shape=mxgraph.mockup.forms.rrect;rSize=0;fontSize=17;fontColor=#666666;" parent="19" vertex="1">
                    <mxGeometry x="10" width="80" height="35" as="geometry"/>
                </mxCell>
                <mxCell id="21" value="Phòng ban" style="strokeColor=inherit;fillColor=inherit;gradientColor=inherit;strokeWidth=1;shadow=0;dashed=0;align=left;html=1;shape=mxgraph.mockup.forms.rrect;rSize=0;fontSize=17;fontColor=#666666;" parent="19" vertex="1">
                    <mxGeometry x="137.14" width="45.59" height="35" as="geometry"/>
                </mxCell>
                <mxCell id="22" value="Bảng lương" style="strokeColor=inherit;fillColor=inherit;gradientColor=inherit;strokeWidth=1;shadow=0;dashed=0;align=left;html=1;shape=mxgraph.mockup.forms.rrect;rSize=0;fontSize=17;fontColor=#666666;" parent="19" vertex="1">
                    <mxGeometry x="252.77777777777783" width="58.33333333333334" height="35" as="geometry"/>
                </mxCell>
                <mxCell id="24" value="" style="strokeColor=inherit;fillColor=inherit;gradientColor=inherit;strokeWidth=1;shadow=0;dashed=0;align=center;html=1;shape=mxgraph.mockup.forms.rrect;rSize=0;fontSize=17;fontColor=#666666;" parent="19" vertex="1">
                    <mxGeometry x="182.7309236947791" height="35" as="geometry"/>
                </mxCell>
                <mxCell id="16" value="Search" style="strokeWidth=1;shadow=0;dashed=0;align=center;html=1;shape=mxgraph.mockup.forms.searchBox;strokeColor=#999999;mainText=;strokeColor2=#008cff;fontColor=#666666;fontSize=17;align=left;spacingLeft=3;" parent="26" vertex="1">
                    <mxGeometry x="500" y="57.5" width="150" height="30" as="geometry"/>
                </mxCell>
                <mxCell id="35" value="Footer" style="rounded=0;whiteSpace=wrap;html=1;fillColor=#1ba1e2;fontColor=#ffffff;strokeColor=#006EAF;" vertex="1" parent="1">
                    <mxGeometry x="40" y="500" width="650" height="270" as="geometry"/>
                </mxCell>
                <mxCell id="36" value="Social Icon" style="whiteSpace=wrap;html=1;aspect=fixed;fontSize=14;fontColor=#ffffff;fillColor=#1ba1e2;strokeColor=#006EAF;" vertex="1" parent="1">
                    <mxGeometry x="460" y="520" width="200" height="200" as="geometry"/>
                </mxCell>
                <mxCell id="37" value="@Copyright 2018 Ristorante Con Fusion" style="rounded=1;whiteSpace=wrap;html=1;fontSize=14;fontColor=#ffffff;fillColor=#1ba1e2;strokeColor=#006EAF;" vertex="1" parent="1">
                    <mxGeometry x="240" y="730" width="260" height="30" as="geometry"/>
                </mxCell>
                <mxCell id="38" value="&lt;font style=&quot;font-size: 19px&quot;&gt;Địa chỉ&lt;br&gt;Số điện thoại:&lt;br&gt;Email&lt;br&gt;&lt;/font&gt;" style="whiteSpace=wrap;html=1;aspect=fixed;fontSize=14;fontColor=#ffffff;align=center;fillColor=#1ba1e2;strokeColor=#006EAF;" vertex="1" parent="1">
                    <mxGeometry x="100" y="520" width="200" height="200" as="geometry"/>
                </mxCell>
                <mxCell id="39" value="Department Name&lt;br&gt;Số lượng nhân viên:" style="whiteSpace=wrap;html=1;aspect=fixed;" vertex="1" parent="1">
                    <mxGeometry x="295" y="160" width="130" height="130" as="geometry"/>
                </mxCell>
                <mxCell id="40" value="Department Name&lt;br&gt;Số lượng nhân viên:" style="whiteSpace=wrap;html=1;aspect=fixed;" vertex="1" parent="1">
                    <mxGeometry x="500" y="160" width="130" height="130" as="geometry"/>
                </mxCell>
                <mxCell id="41" value="Department Name&lt;br&gt;Số lượng nhân viên:" style="whiteSpace=wrap;html=1;aspect=fixed;" vertex="1" parent="1">
                    <mxGeometry x="80" y="330" width="130" height="130" as="geometry"/>
                </mxCell>
                <mxCell id="42" value="Department Name&lt;br&gt;Số lượng nhân viên:" style="whiteSpace=wrap;html=1;aspect=fixed;" vertex="1" parent="1">
                    <mxGeometry x="295" y="330" width="130" height="130" as="geometry"/>
                </mxCell>
                <mxCell id="43" value="Department Name&lt;br&gt;Số lượng nhân viên:" style="whiteSpace=wrap;html=1;aspect=fixed;" vertex="1" parent="1">
                    <mxGeometry x="500" y="330" width="130" height="130" as="geometry"/>
                </mxCell>
            </root>
        </mxGraphModel>
    </diagram>
</mxfile>